<?xml version="1.0" encoding="UTF-8"?>
<svg width="24px" height="24px" viewBox="0 0 24 24" version="1.1" xmlns="http://www.w3.org/2000/svg" xmlns:xlink="http://www.w3.org/1999/xlink">
    <!-- Generator: Sketch 47.1 (45422) - http://www.bohemiancoding.com/sketch -->
    <title>icon-MOD</title>
    <desc>Created with Sketch.</desc>
    <defs></defs>
    <g id="Asset-handoff" stroke="none" stroke-width="1" fill="none" fill-rule="evenodd">
        <g id="icon-MOD">
            <g id="tag-bar-&amp;-bump">
                <g id="tag">
                    <circle id="yellow-circle" fill="#FFCA00" cx="12" cy="12" r="12"></circle>
                    <path d="M17.2709413,13.8769886 C17.269549,13.8711761 17.2681625,13.8653845 17.2667825,13.8596162 L15.9073184,15.1868558 C15.4190856,15.0087577 15.4995895,14.2021819 15.6305649,13.6168718 L17.8153061,11.4321306 C18.0058181,11.2416186 18.1245382,10.8615136 18.0759189,10.5876982 L17.4577378,7.1062085 C17.408013,6.82616696 17.1482402,6.57151474 16.8750497,6.52352042 L13.4015062,5.91328549 C13.1221039,5.86419986 12.7507571,5.98247814 12.5582053,6.1750299 L8.46371026,10.269525 L13.720811,15.5266257 L14.0575252,15.1899115 C14.0476153,15.1263357 14.0403145,15.0618066 14.0357429,14.9964296 C13.998155,14.4588982 14.1944522,12.8243083 14.4751619,11.250959 C14.5906053,10.6039102 14.6948304,10.0628871 14.7984089,9.61876604 C14.7109374,9.56628421 14.6283766,9.50230996 14.5529195,9.42685286 C14.0605677,8.93450105 14.0570938,8.13971501 14.5451602,7.65164854 C15.0332267,7.16358208 15.8280127,7.16705604 16.3203645,7.65940785 C16.8127164,8.15175965 16.8161903,8.9465457 16.3281238,9.43461216 C16.1990052,9.5637308 16.0484201,9.65844779 15.8876471,9.71881244 C15.8824634,9.70777096 15.87732,9.69689496 15.8722177,9.6861863 C15.8570649,9.73612137 15.8416065,9.78938291 15.8259084,9.84580306 C15.7021036,10.2907652 15.5687028,10.9118201 15.4426053,11.618584 C15.203189,12.9604878 15.0320013,14.3859876 15.0592861,14.7761775 C15.1055589,15.4379101 15.6748417,15.9371653 16.3308147,15.8912952 C16.9867877,15.8454251 17.4810473,15.2717997 17.4347745,14.6100671 C17.4316964,14.566049 17.4052161,14.4436476 17.3702887,14.2935377 L18.2681039,13.4384845 C18.47852,13.8765611 18.4707471,14.567559 18.4790102,14.6857261 C18.5655619,15.9234736 17.6410667,16.9964196 16.4140923,17.082218 C15.7538588,17.128386 15.1405763,16.8793176 14.7014017,16.4465282 L11.9782564,19.1696735 C11.5866813,19.5612486 10.952873,19.5623088 10.5577136,19.1671494 L4.83254696,13.4419828 C4.4395779,13.0490137 4.44335506,12.4081078 4.83002288,12.02144 L11.8991252,4.95233768 C12.2907003,4.56076263 13.0412186,4.32293302 13.5890681,4.42363261 L17.6491552,5.16991262 C18.1909099,5.26949192 18.711088,5.78469553 18.8135517,6.33430905 L19.5729052,10.4074697 C19.6742289,10.9509688 19.4340265,11.7139034 19.0473587,12.1005712 L17.2709413,13.8769886 Z M6.42141444,13.0600364 L10.9723225,17.6109445 C11.1737536,17.8123756 11.4813007,17.808159 11.6735907,17.615869 L12.8265891,16.4628706 L7.56948833,11.2057699 L6.41648992,12.3587683 C6.22896963,12.5462886 6.22640473,12.8650267 6.42141444,13.0600364 Z" id="tag-icon" fill="#00355F"></path>
                </g>
            </g>
        </g>
    </g>
</svg>